# File created by Blade
# Date/Time:  Wed Jan 21 14:58:10 2015
# Frame Rate: 120.000 fps
#------------------------------------------------------
:FULLY-SPECIFIED
:DEGREES
926
root 17.545940 35.566051 -22.341287 -173.374456 -8.507290 -179.284487
Spine -12.098044 3.151276 -0.620238
Head 9.256039 4.990502 4.184062
LeftShoulder -3.356870 -25.510938 17.590815
LeftArm 2.072792 8.587332 -10.541680
LeftForeArm 8.422792 -0.000000 -0.378775
LeftHand -10.206210 0.000000 -0.987225
LeftHandThumb1 -26.253704 0.000000 33.147579
RightShoulder -5.381961 -3.511805 -10.842352
RightArm 18.485190 24.074453 17.638684
RightForeArm -33.530621 0.000000 4.714687
RightHand -7.083621 -0.000000 7.592998
RightHandThumb1 -24.326973 -0.000000 -32.862282
LeftUpLeg -1.560768 3.368414 4.763828
LeftLeg -5.129682 -0.000000 0.000000
LeftFoot -17.556946 25.403997 -14.682997
LeftToeBase 25.554268 -0.000000 -0.000000
RightUpLeg -0.163388 -9.916244 -2.373505
RightLeg -1.166241 -0.000000 0.000000
RightFoot -20.992775 -21.495175 19.335012
RightToeBase 21.857952 -0.000000 -0.000000
927
root 17.534753 35.564825 -22.338341 -173.172189 -7.698414 -179.226970
Spine -12.269435 2.861264 -0.493161
Head 9.098330 5.046845 4.106217
LeftShoulder -3.555357 -25.665071 17.676553
LeftArm 2.189456 8.412487 -10.426399
LeftForeArm 8.510507 -0.000000 -0.408094
LeftHand -10.255674 -0.000000 -0.823732
LeftHandThumb1 -26.253704 0.000000 33.147579
RightShoulder -5.580179 -3.558346 -10.734919
RightArm 18.303054 24.111426 17.304401
RightForeArm -33.362865 -0.000000 4.675481
RightHand -7.043902 -0.000000 7.635003
RightHandThumb1 -24.326973 -0.000000 -32.862282
LeftUpLeg -1.562147 3.914631 4.729868
LeftLeg -5.204547 -0.000000 0.000000
LeftFoot -17.675478 25.602106 -14.711443
LeftToeBase 25.498647 -0.000000 -0.000000
RightUpLeg -0.473306 -9.415109 -2.373249
RightLeg -1.246772 -0.000000 0.000000
RightFoot -20.756765 -21.263065 19.180664
RightToeBase 21.917094 -0.000000 -0.000000
928
root 17.523233 35.564670 -22.335330 -172.982482 -6.871118 -179.173103
Spine -12.463165 2.617410 -0.348117
Head 9.059947 5.106463 3.964338
LeftShoulder -3.684807 -25.718873 17.683457
LeftArm 2.252326 8.229245 -10.265218
LeftForeArm 8.600937 -0.000000 -0.477712
LeftHand -10.332876 -0.000000 -0.762814
LeftHandThumb1 -26.253704 0.000000 33.147579
RightShoulder -5.854837 -3.461250 -10.786938
RightArm 18.326361 24.413809 17.369404
RightForeArm -33.581021 -0.000000 4.611853
RightHand -7.159923 -0.000000 7.670712
RightHandThumb1 -24.326973 -0.000000 -32.862282
LeftUpLeg -1.549022 4.480610 4.687341
LeftLeg -5.273985 -0.000000 0.000000
LeftFoot -17.803820 25.781080 -14.796210
LeftToeBase 25.437416 -0.000000 -0.000000
RightUpLeg -0.774490 -8.868422 -2.389414
RightLeg -1.317122 -0.000000 0.000000
RightFoot -20.553728 -21.036231 19.106016
RightToeBase 21.966285 -0.000000 -0.000000
929
root 17.512919 35.563352 -22.336880 -172.770019 -6.043816 -179.118557
Spine -12.693657 2.403189 -0.234391
Head 9.033437 5.192323 3.878061
LeftShoulder -3.826420 -25.866828 17.778984
LeftArm 2.250805 8.142147 -10.163200
LeftForeArm 8.676852 0.000000 -0.603435
LeftHand -10.379741 0.000000 -0.790044
LeftHandThumb1 -26.253704 0.000000 33.147579
RightShoulder -6.035704 -3.249012 -10.770697
RightArm 18.074205 24.558788 17.211384
RightForeArm -33.633051 -0.000000 4.615199
RightHand -7.057023 -0.000000 7.657338
RightHandThumb1 -24.326973 -0.000000 -32.862282
LeftUpLeg -1.525507 4.952508 4.654526
LeftLeg -5.389950 -0.000000 0.000000
LeftFoot -17.937959 26.046949 -14.896383
LeftToeBase 25.405532 -0.000000 -0.000000
RightUpLeg -1.058097 -8.403918 -2.398362
RightLeg -1.459010 -0.000000 0.000000
RightFoot -20.314338 -20.763972 19.000423
RightToeBase 22.018250 -0.000000 -0.000000
930
root 17.504898 35.562671 -22.342497 -172.590433 -5.260212 -179.047488
Spine -12.900506 2.216575 -0.104965
Head 9.030765 5.207224 3.788104
LeftShoulder -3.925503 -26.031377 17.853615
LeftArm 2.207514 8.116795 -10.058591
LeftForeArm 8.702235 0.000000 -0.746847
LeftHand -10.240606 0.000000 -0.964708
LeftHandThumb1 -26.253704 0.000000 33.147579
RightShoulder -6.261259 -3.274081 -10.703147
RightArm 17.886618 24.862466 17.029177
RightForeArm -33.637688 -0.000000 4.693157
RightHand -7.167095 -0.000000 7.764737
RightHandThumb1 -24.326973 -0.000000 -32.862282
LeftUpLeg -1.474659 5.401905 4.642825
LeftLeg -5.505005 -0.000000 0.000000
LeftFoot -18.065641 26.322312 -14.986520
LeftToeBase 25.309157 -0.000000 -0.000000
RightUpLeg -1.299670 -7.917055 -2.399616
RightLeg -1.582720 -0.000000 0.000000
RightFoot -20.075904 -20.480341 19.019456
RightToeBase 21.861139 -0.000000 -0.000000
931
root 17.495905 35.560728 -22.348096 -172.409406 -4.486889 -178.980848
Spine -13.105370 2.031580 -0.000572
Head 9.005788 5.245342 3.745438
LeftShoulder -4.088542 -26.143242 18.014947
LeftArm 2.203633 7.974251 -10.020336
LeftForeArm 8.779304 -0.000000 -0.948348
LeftHand -10.259650 -0.000000 -1.131363
LeftHandThumb1 -26.253704 0.000000 33.147579
RightShoulder -6.354643 -3.217688 -10.644043
RightArm 17.544023 25.202173 16.814405
RightForeArm -33.654022 -0.000000 4.649525
RightHand -7.055340 -0.000000 7.643550
RightHandThumb1 -24.326973 -0.000000 -32.862282
LeftUpLeg -1.454222 5.939536 4.613425
LeftLeg -5.571929 -0.000000 0.000000
LeftFoot -18.198133 26.505740 -15.034219
LeftToeBase 25.284461 -0.000000 -0.000000
RightUpLeg -1.501162 -7.515449 -2.402045
RightLeg -1.780904 -0.000000 0.000000
RightFoot -19.844587 -20.223146 19.002974
RightToeBase 21.962654 -0.000000 -0.000000
932
root 17.484298 35.558537 -22.356102 -172.263779 -3.772734 -178.925727
Spine -13.267449 1.804947 0.128726
Head 8.997580 5.327656 3.686330
LeftShoulder -4.250026 -26.284778 18.136163
LeftArm 2.133578 7.805374 -9.956689
LeftForeArm 8.831589 -0.000000 -1.141899
LeftHand -10.275664 0.000000 -1.339608
LeftHandThumb1 -26.253704 0.000000 33.147579
RightShoulder -6.498192 -3.183699 -10.614925
RightArm 17.303810 25.396664 16.593078
RightForeArm -33.635626 -0.000000 4.569062
RightHand -7.208565 -0.000000 7.619866
RightHandThumb1 -24.326973 -0.000000 -32.862282
LeftUpLeg -1.390126 6.321304 4.584965
LeftLeg -5.658648 -0.000000 0.000000
LeftFoot -18.345019 26.777444 -15.111001
LeftToeBase 25.228451 -0.000000 -0.000000
RightUpLeg -1.657960 -7.347012 -2.416891
RightLeg -1.969432 -0.000000 0.000000
RightFoot -19.573099 -19.846987 18.898705
RightToeBase 22.184029 -0.000000 -0.000000
933
root 17.474854 35.556515 -22.370325 -172.115332 -3.064464 -178.884628
Spine -13.469687 1.646582 0.201977
Head 9.036862 5.322346 3.623345
LeftShoulder -4.393464 -26.369206 18.282328
LeftArm 2.116322 7.536898 -9.934234
LeftForeArm 8.822412 -0.000000 -1.358813
LeftHand -10.503021 -0.000000 -1.521366
LeftHandThumb1 -26.253704 0.000000 33.147579
RightShoulder -6.709487 -3.271134 -10.530405
RightArm 17.125416 25.682636 16.363622
RightForeArm -33.559488 -0.000000 4.437512
RightHand -7.023403 -0.000000 7.549390
RightHandThumb1 -24.326973 -0.000000 -32.862282
LeftUpLeg -1.299933 6.739866 4.540428
LeftLeg -5.785744 -0.000000 0.000000
LeftFoot -18.466009 27.004902 -15.219592
LeftToeBase 25.187114 -0.000000 -0.000000
RightUpLeg -1.798692 -7.126501 -2.446793
RightLeg -2.166775 -0.000000 0.000000
RightFoot -19.342938 -19.473351 18.880839
RightToeBase 22.282612 -0.000000 -0.000000
934
root 17.462516 35.553543 -22.384020 -172.002874 -2.418771 -178.859229
Spine -13.619486 1.429972 0.296326
Head 9.086395 5.371259 3.552091
LeftShoulder -4.565133 -26.466091 18.394668
LeftArm 2.110177 7.358610 -9.868879
LeftForeArm 8.729001 -0.000000 -1.662657
LeftHand -10.369211 -0.000000 -1.906969
LeftHandThumb1 -26.253704 0.000000 33.147579
RightShoulder -6.858100 -3.298186 -10.565116
RightArm 16.884808 26.179937 16.308313
RightForeArm -33.724097 -0.000000 4.405954
RightHand -6.898058 -0.000000 7.558891
RightHandThumb1 -24.326973 -0.000000 -32.862282
LeftUpLeg -1.202934 7.127725 4.481590
LeftLeg -5.881007 -0.000000 0.000000
LeftFoot -18.580678 27.195314 -15.298116
LeftToeBase 25.135627 -0.000000 -0.000000
RightUpLeg -1.872890 -6.943184 -2.492371
RightLeg -2.406333 -0.000000 0.000000
RightFoot -19.082831 -19.172730 18.811674
RightToeBase 22.300830 -0.000000 -0.000000
